<?xml version="1.0" encoding="UTF-8"?>
<!DOCTYPE svg PUBLIC "-//W3C//DTD SVG 1.1//EN" "http://www.w3.org/Graphics/SVG/1.1/DTD/svg11.dtd">
<!-- Creator: CorelDRAW 2020 (64-Bit) -->
<svg xmlns="http://www.w3.org/2000/svg" xml:space="preserve" width="189.796mm" height="64.9456mm" version="1.1" style="shape-rendering:geometricPrecision; text-rendering:geometricPrecision; image-rendering:optimizeQuality; fill-rule:evenodd; clip-rule:evenodd"
viewBox="0 0 4246.4 1453.06"
 xmlns:xlink="http://www.w3.org/1999/xlink"
 xmlns:xodm="http://www.corel.com/coreldraw/odm/2003">
 <defs>
  <style type="text/css">
   <![CDATA[
    .fil0 {fill:white}
   ]]>
  </style>
 </defs>
 <g id="Слой_x0020_1">
  <metadata id="CorelCorpID_0Corel-Layer"/>
  <g id="_1134453936">
   <path class="fil0" d="M690.61 1453.05c105.96,0 140.68,1.31 245.1,-29.8 55.4,-16.5 101.45,-38.59 147.62,-63.02 -10.16,-43.59 -82.75,-84.04 -140.28,-79.63 -76.08,5.84 -76.97,33.22 -241.73,33.22 -108.28,0 -238.26,-48.95 -320.84,-111.15 -79.24,-59.68 -118.19,-107.58 -168.99,-191.6 -24.2,-40.03 -47.79,-112.35 -59.32,-158.46 -34.1,-136.38 -4.15,-294.57 62.44,-414.66 55.1,-99.37 158.86,-195.57 262.96,-244 190.4,-88.58 421.17,-67.59 588.47,55.39 33.3,24.48 66.79,53.79 93.33,85.18 58.26,68.88 66.34,83.55 103.68,160.52 9.14,18.85 17.09,46.28 23.37,65.89 61.61,192.33 -10.3,339.9 -10.3,381.6 0,67.17 19.87,115.33 78.54,146.38 110.56,-208.93 130.86,-435.84 33.35,-654.57 -73.66,-165.22 -189.57,-282.15 -351.1,-362.94 -251.92,-126 -574.68,-81.17 -782.74,102.67l-46.56 42.69c-8.93,9.32 -10.46,14.14 -19.45,23.39 -32.02,32.97 -72.55,89.8 -94.93,130 -35.07,63 -57.05,119.31 -74.58,193.19 -55.37,233.35 14.55,498.59 181.94,665.7 14.29,14.26 29.55,31.88 45.24,44.01 63.57,49.17 67.44,60.61 160.33,107.43 68.72,34.64 183.24,72.59 284.43,72.59z"/>
   <path class="fil0" d="M319.31 949.66l107.1 0 0 -178.51c45.68,0 34.72,-5.58 60.74,28.52l100.74 127.75c12.47,15.47 9.16,22.07 34.58,22.54 37.66,0.69 76.7,-0.3 114.55,-0.3 -4.62,-19.81 -76.08,-99.03 -90.38,-116.7l-70.79 -86.3c-8.97,-10.99 -17.56,-18.25 -20.91,-32.64l40.78 -52.05c15.03,-19.26 27.71,-34.22 42.88,-53.52l84.14 -108.65 -132.1 0c-31.28,46.71 -83.06,109.64 -111.33,152.87 -14.89,22.78 -12.9,18.5 -52.91,18.5l0 -171.37 -107.1 0 0 449.85z"/>
   <path class="fil0" d="M737.02 746.16c0,134.99 59.65,210.64 199.93,210.64 78.41,0 148.73,-34.06 176.05,-98.86 7.96,-18.88 16.74,-50.93 16.74,-76.08l0 -282.04 -107.11 0 0 257.06c0,40.87 -12.71,73.26 -47.74,87.93 -51.45,21.55 -127.2,0.86 -127.2,-73.65l0 -271.33 -110.68 0 0 246.35z"/>
   <path class="fil0" d="M1508.18 367.71l85.68 0 0 -117.82c33.77,0 27.45,2.32 65.77,55.62 14.68,20.42 33.86,41.32 44.91,62.2l107.11 0c-3.72,-13.93 -77.97,-103.77 -90.28,-120.36 -10.76,-14.5 -21.72,-26.27 -31.11,-40.3 18.1,-27.02 35.61,-49.84 55.6,-76.5 12.25,-16.34 51.24,-64.1 55.08,-80.59l-103.54 0c-10.83,20.47 -26.46,41.47 -39.27,60.69 -6.77,10.15 -12.37,19.01 -19.96,30.02 -21.53,31.27 -15.46,27.1 -44.3,27.1l0 -117.82 -85.68 0 0 317.75z"/>
   <path class="fil0" d="M1504.61 706.88c0,155.23 187.28,153.53 241.98,99.17 25.68,-25.53 40.07,-54.67 40.07,-95.6l0 -196.36c-107.66,0 -89.27,-14.62 -89.25,60.69 0,26.21 3.35,130.85 -2.29,147.66 -15.27,45.5 -101.25,44.19 -101.25,-19.14l0 -189.22 -89.25 0 0 192.79z"/>
   <path class="fil0" d="M1655.12 1074.8c-0.07,0.53 0.55,0.85 0.73,2.08l7.43 17.57c3.19,8.32 4.79,11.81 7.83,20.73 5.21,15.33 9.55,32.53 15.58,45.11l-60.69 0 29.13 -85.49zm-168.36 224.73l92.83 0c1.59,-19.1 13.34,-41.35 17.85,-60.69l114.25 0c5.39,10.2 20.32,47.45 21.42,60.69l92.83 0c-1.75,-21.02 -111.07,-288.79 -117.81,-317.75l-103.54 0c-5.92,25.4 -19.52,55.03 -28.15,78.96 -5,13.88 -10.11,24.56 -15.12,38.44 -4.99,13.84 -9.43,26.21 -15.38,41.74 -10.54,27.51 -18.87,50.22 -29.57,77.54 -5.29,13.5 -10.39,26.96 -14.78,38.77 -5.42,14.57 -11.4,27.63 -14.82,42.3z"/>
   <path class="fil0" d="M2218.65 1228.13c-61.42,0 -52.1,-82.12 -3.57,-82.12 50.19,0 50,82.12 3.57,82.12zm32.13 -139.24c-116.18,-77.8 -210.12,87.73 -131.11,181.09 61.69,72.9 127.02,17.31 134.68,15.27l0 14.28 78.54 0 0 -324.89 -82.11 0 0 114.25z"/>
   <path class="fil0" d="M2979.1 296.31c-61.42,0 -52.1,-82.11 -3.57,-82.11 50.19,0 50,82.11 3.57,82.11zm32.13 -139.23c-116.18,-77.8 -210.12,87.73 -131.11,181.09 26.38,31.17 66.17,47.12 107.27,30.71 15.63,-6.24 14.07,-11.88 27.41,-15.44l0 14.28 78.54 0 0 -324.89 -82.11 0 0 114.25z"/>
   <path class="fil0" d="M2086.55 367.71l82.11 0 0 -82.12c16.51,1.37 14.99,8.09 31.03,36.8 8.94,16.01 17.98,29.98 26.09,45.31l96.4 0c-3.58,-13.4 -27.86,-45.36 -37.13,-59.27 -13.18,-19.77 -27.25,-38.55 -37.84,-58.55 13.97,-20.86 70.5,-90.37 74.97,-107.11l-96.4 0c-10.2,19.27 -38,53.28 -42.84,71.4l-14.28 0 0 -171.37 -82.11 0 0 324.89z"/>
   <path class="fil0" d="M2415.01 257.04c0,-55.45 74.97,-60.76 74.97,3.57 0,45.28 -74.97,53.03 -74.97,-3.57zm-85.68 -10.71c0,71.45 32.45,128.53 107.11,128.53 24.23,0 38.9,-11.61 53.55,-21.42l0 14.28 82.11 0 0 -214.21c0,-18.13 -32.79,-10.71 -82.11,-10.71l0 17.85c-18.37,-12.3 -18.67,-18.75 -48.42,-23.22 -58.03,-8.72 -112.24,49.05 -112.24,108.91z"/>
   <path class="fil0" d="M3411.09 992.5c-24.09,-12.75 -43.42,-24.99 -78.55,-24.99 -63.37,0 -92.83,43.21 -92.83,107.11l-35.7 0 0 74.97 35.7 0 0 149.95 82.12 0 0 -149.95 57.12 0 0 -74.97 -57.12 0c0.35,-15.69 2.42,-11.12 3.57,-24.99 35.13,-8.18 27.04,-1.77 49.98,3.57 7.61,-11.37 21.73,-28.86 24.99,-42.84 17.34,12.71 0.57,46.41 57.12,46.41 55.95,0 57.26,-92.83 -3.57,-92.83 -22.45,0 -38.16,11.02 -42.84,28.56z"/>
   <path class="fil0" d="M3878.79 1146.01c13.15,0 22.31,2.64 29.65,9.62 27.5,26.13 5.43,72.5 -15.38,72.5 -23.3,0 -48,-3.09 -48.41,-39.25 -0.22,-19.58 13.03,-42.87 34.13,-42.87zm-117.82 28.56c0,37.2 1.02,67.33 27.64,97.31 38.95,43.86 86.51,44.51 133.01,13.36l0 14.28 78.54 0 0 -224.92 -78.54 0 0 17.85c-26.73,-17.9 -57.09,-39.3 -107.07,-10.68 -26.22,15.01 -53.59,51.83 -53.59,92.79z"/>
   <path class="fil0" d="M1900.9 260.61c0,-62.46 74.97,-62.46 74.97,0 0,48.23 -74.97,48.23 -74.97,0zm-85.68 -7.14c0,162.42 246.34,159.47 246.34,3.57 0,-162.41 -246.34,-155.37 -246.34,-3.57z"/>
   <path class="fil0" d="M2682.77 1188.86c0,-58.16 74.97,-53.79 74.97,-7.14 0,37.88 -8.52,46.41 -46.41,46.41 -14.59,0 -28.56,-22.66 -28.56,-39.27zm-85.68 -3.57c0,14.86 5.98,39.72 10.63,50.06 5.04,11.19 15.7,27.96 24.22,36.48 94.28,94.28 259.42,-11.73 200.9,-136.63 -4.39,-9.37 -18.08,-27.78 -26.07,-34.62 -49.43,-42.34 -126.07,-43.81 -171.37,1.64 -20.8,20.87 -38.3,50.86 -38.3,83.09z"/>
   <path class="fil0" d="M2568.53 671.18l3.57 0c18.45,0 22.23,9.46 28.56,21.42l-60.69 0c3.45,-12.92 12.46,-21.42 28.56,-21.42zm-117.82 49.98c0,12.47 5.32,37.64 9.52,47.6 43.09,101.94 182.2,75.19 211.83,30.95 -8.7,-12.99 -39.55,-37.03 -53.55,-46.41 -14.17,7.5 -23.53,16.44 -42.89,16.25 -16.08,-0.16 -31.31,-7.16 -35.65,-23.39l142.81 0 0 -39.27c0,-59.91 -57.38,-111.46 -119.95,-105.71 -69.61,6.4 -112.11,56.23 -112.11,119.99z"/>
   <path class="fil0" d="M3536.05 778.28c-4.71,20.19 -26.04,51.88 -35.7,71.41 -10.41,21.04 -34.1,55.68 -35.7,74.97l85.68 0 121.39 -235.63c9.17,-18.45 35.11,-64.27 39.27,-82.12l-89.25 0 -39.27 85.68c-4.02,-4.62 -1.66,-1.18 -5.92,-8.36l-16.53 -33.45c-7.34,-17.19 -12.44,-28.85 -20.39,-43.87l-92.83 0c4.56,19.58 52.74,102.13 65.51,127.28 8.67,17.08 13.98,29.5 23.75,44.08z"/>
   <path class="fil0" d="M2686.34 160.64l0 -17.85 -78.54 0 0 224.92 82.12 0 0 -117.82c0,-51.59 53.56,-42.25 53.56,-7.14l0 124.96 82.11 0 0 -149.95c0,-59.03 -51.88,-88.34 -96.78,-79.17 -25.98,5.3 -25.38,10.62 -42.46,22.05z"/>
   <path class="fil0" d="M1925.89 1092.46l0 -17.85 -78.54 0 0 224.92 82.12 0 0 -117.82c0,-51.59 53.56,-42.25 53.56,-7.14l0 124.96 82.11 0 0 -149.95c0,-59.03 -51.88,-88.34 -96.78,-79.18 -25.98,5.3 -25.38,10.62 -42.46,22.05z"/>
   <path class="fil0" d="M1904.47 624.77l0 -17.85 -78.55 0 0 224.92 82.12 0 0 -124.96c0,-35.29 53.55,-44.32 53.55,7.14l0 117.82 82.12 0 0 -146.38c0,-37.27 -19.75,-66.44 -47.69,-77.27 -50.91,-19.73 -73.64,4.59 -91.55,16.58z"/>
   <path class="fil0" d="M2950.54 1092.46l0 -17.85 -78.54 0 0 224.92 82.11 0 0 -124.96c0,-35.29 53.56,-44.32 53.56,7.14l0 117.82 82.11 0 0 -146.38c0,-37.27 -19.75,-66.44 -47.69,-77.27 -16.35,-6.34 -34.38,-8.33 -49.04,-5.47 -29.91,5.83 -24.05,9.69 -42.51,22.05z"/>
   <path class="fil0" d="M2889.85 678.32c0,72.36 78.4,70.49 107.93,77.72 13.13,3.22 12.28,0.93 13.46,15.11 -88.34,0 -53.86,-6.28 -103.54,-17.85l-24.99 64.26c75.18,39.78 229.38,29.75 212.52,-69.4 -10.91,-64.15 -70.98,-57.14 -105.53,-66.15 -14.48,-3.78 -10.6,-0.98 -14.16,-10.83 24.46,-13.74 71.07,10.15 96.4,10.71 1.63,-19.58 13.42,-45.24 17.85,-64.26 -6.4,-0.53 -199.93,-61.82 -199.93,60.69z"/>
   <path class="fil0" d="M3268.29 606.92l-39.27 0 0 74.97 39.27 0c0,82 -9.74,157.09 99.96,157.09 27.2,0 63.67,-13.13 74.97,-28.56l-24.99 -60.69c-11.15,2.6 -67.83,35.65 -67.83,-24.99l0 -42.84c91.7,0 74.97,16.72 74.97,-74.97l-74.97 0 0 -64.26 -82.11 0 0 64.26z"/>
   <path class="fil0" d="M2265.06 831.84l96.4 0c1.16,-13.91 13.88,-40.91 19.18,-55.79 7.43,-20.83 14.02,-36.37 21.42,-57.12l41.51 -112.01 -89.25 0 -29.87 98.66c-3.99,12.09 -8.33,20.49 -9.4,33.44l-42.84 -132.1 -89.25 0c1.23,14.81 13.22,41.6 18.89,56.08 7.93,20.24 14.49,36.5 21.72,56.83l41.51 112.01z"/>
   <path class="fil0" d="M1094.04 1181.72l0 17.85c0,71.13 104.05,120.19 162.11,55l13.52 -18.61c19.25,-35.48 11.66,-85.04 -19.25,-114.22 -57.14,-53.94 -156.37,-9.72 -156.37,59.98z"/>
   <path class="fil0" d="M2489.98 1292.39c0,12.31 -2.64,13.82 -3.57,24.99 -21.95,5.11 -25.02,-9.08 -25.32,20.99 -0.23,22.8 -3.24,36.28 -3.24,53.98 19.5,1.62 9.74,3.57 42.84,3.57 47.6,0 71.4,-43.76 71.4,-92.83l0 -228.49 -82.11 0 0 217.78z"/>
   <polygon class="fil0" points="4039.45,1299.53 4121.56,1299.53 4121.56,974.64 4039.45,974.64 "/>
   <polygon class="fil0" points="3532.48,1299.53 3614.59,1299.53 3614.59,974.64 3532.48,974.64 "/>
   <path class="fil0" d="M2789.88 624.77l0 -17.85 -78.54 0 0 224.92 82.12 0 0 -107.11c0,-57.82 35.11,-42.29 71.4,-39.27 0.36,-16.14 3.57,-14.18 3.57,-32.13l0 -49.98c-49.85,-1.11 -36.36,-6.83 -78.54,21.42z"/>
   <path class="fil0" d="M2368.6 1299.53l85.69 0 0 -214.21c0,-8.22 -2.49,-10.71 -10.71,-10.71l-74.97 0 0 224.92z"/>
   <polygon class="fil0" points="3121.91,831.84 3204.02,831.84 3204.02,606.92 3121.91,606.92 "/>
   <polygon class="fil0" points="2079.41,831.84 2161.53,831.84 2161.53,606.92 2079.41,606.92 "/>
   <polygon class="fil0" points="3411.09,1299.53 3493.21,1299.53 3493.21,1074.61 3411.09,1074.61 "/>
   <polygon class="fil0" points="3650.3,1299.53 3732.41,1299.53 3732.41,1074.61 3650.3,1074.61 "/>
   <polygon class="fil0" points="4157.27,1299.53 4239.38,1299.53 4239.38,1074.61 4157.27,1074.61 "/>
   <path class="fil0" d="M2072.27 542.65c0,63.22 97.44,60.88 95.27,0.43 -2.27,-63.2 -95.27,-59.93 -95.27,-0.43z"/>
   <path class="fil0" d="M4192.96 1056.76c76.6,0 63.45,-92.83 7.14,-92.83 -64.8,0 -59.92,92.83 -7.14,92.83z"/>
   <path class="fil0" d="M3157.61 589.06c76.6,0 63.45,-92.83 7.14,-92.83 -64.8,0 -59.92,92.83 -7.14,92.83z"/>
   <path class="fil0" d="M3686 1056.76c76.6,0 63.44,-92.83 7.14,-92.83 -64.8,0 -59.93,92.83 -7.14,92.83z"/>
   <path class="fil0" d="M2365.03 1010.35c0,61.84 92.82,64.51 92.82,-3.57 0,-54.86 -92.82,-60.14 -92.82,3.57z"/>
   <path class="fil0" d="M2482.84 1006.78c0,67.71 92.83,67.71 92.83,0 0,-56.33 -92.83,-56.33 -92.83,0z"/>
  </g>
 </g>
</svg>
